# xmcd
# Copyright (C) 1995-1998 Ti Kan
#
# Track frame offsets:
#       150
#       7839
#       23531
#       29031
#       41166
#       51512
#       54751
#       61460
#       69388
#       77305
#       95410
#       104619
#       115439
#       127237
#       134368
#       141413
#       154274
#       159783
#       171421
#       180458
#       186435
#       198897
#       216285
#       229419
#       240032
#
# Disc length: 3323 seconds
#
# Revision: 0
# Processed by: cddbd v1.5.2PL0 Copyright (c) Steve Scherf et al.
# Submitted via: CD-Import v1.0
#
DISCID=5e0cf919
DTITLE=Oli Kehrli - We Meitschi Buebe
DYEAR=10
DGENRE=
TTITLE0=Ungriemtheit
TTITLE1=Bärndütsch
TTITLE2=Dr Stagli U Dr Stogli
TTITLE3=Wi Geit's
TTITLE4=Liebesbekenntnis
TTITLE5=Hätti Wäri
TTITLE6=Kontaktazeig
TTITLE7=Darwin
TTITLE8=Bsuech Bim Pfarrer
TTITLE9=Im Fau Für Ä Fau Auer Fäu
TTITLE10=Bordell
TTITLE11=Militär
TTITLE12=Hingergedanke
TTITLE13=Frou Erismaa
TTITLE14=Gsichter
TTITLE15=Morgelatte
TTITLE16=Ä Pfarrer U Ä Buschaufför
TTITLE17=Blind For Liebi
TTITLE18=Digitali Liebi
TTITLE19=Herr Hagebuech
TTITLE20=Charte
TTITLE21=Missverständnis
TTITLE22=Perfekti Frau
TTITLE23=Lulatsch
TTITLE24=Ig Läbe No
EXTD=
EXTT0=
EXTT1=
EXTT2=
EXTT3=
EXTT4=
EXTT5=
EXTT6=
EXTT7=
EXTT8=
EXTT9=
EXTT10=
EXTT11=
EXTT12=
EXTT13=
EXTT14=
EXTT15=
EXTT16=
EXTT17=
EXTT18=
EXTT19=
EXTT20=
EXTT21=
EXTT22=
EXTT23=
EXTT24=
PLAYORDER=
